<svg width="55" height="55" viewBox="0 0 55 55" fill="none" xmlns="http://www.w3.org/2000/svg">
<path fill-rule="evenodd" clip-rule="evenodd" d="M20.4678 15.9334C28.0123 6.24108 39.7953 0.000561525 53.0356 1.75435e-09C53.5566 -2.20041e-05 54.0563 0.206919 54.4246 0.575296C54.793 0.943674 55 1.44331 55 1.96429C55 15.2052 48.7595 26.9893 39.0669 34.5344C39.211 35.4432 39.2857 36.3742 39.2857 37.3214C39.2857 47.085 31.3707 55 21.6071 55C20.5223 55 19.6428 54.1206 19.6428 53.0357V42.215C19.6186 42.1975 19.5947 42.1795 19.5712 42.1608C17.0778 40.1838 14.8185 37.9245 12.8415 35.4311C12.8222 35.4068 12.8036 35.3822 12.7856 35.3571H1.96428C0.87944 35.3571 0 34.4777 0 33.3929C0 23.6293 7.91496 15.7143 17.6786 15.7143C18.6266 15.7143 19.5583 15.7891 20.4678 15.9334ZM35.3571 13.75C32.1026 13.75 29.4643 16.3883 29.4643 19.6429C29.4643 22.8974 32.1026 25.5357 35.3571 25.5357C38.6116 25.5357 41.25 22.8974 41.25 19.6429C41.25 16.3883 38.6116 13.75 35.3571 13.75Z" fill="#825CFF"/>
<path d="M9.84856 41.2286C10.7181 40.5799 10.8972 39.3492 10.2485 38.4796C9.59982 37.6101 8.36906 37.431 7.49951 38.0797C4.14356 40.5832 1.96428 44.5908 1.96428 49.1069C1.96428 49.8286 2.02005 50.5386 2.12786 51.2325C2.25916 52.0776 2.92219 52.7406 3.7673 52.8719C4.46119 52.9797 5.17117 53.0355 5.89285 53.0355C10.409 53.0355 14.4166 50.8562 16.9201 47.5003C17.5688 46.6307 17.3897 45.4 16.5202 44.7513C15.6506 44.1026 14.4198 44.2817 13.7712 45.1512C11.9772 47.556 9.11641 49.1069 5.89285 49.1069C5.89285 45.8834 7.4438 43.0225 9.84856 41.2286Z" fill="#825CFF"/>
</svg>
